<svg width="441" height="221" viewBox="0 0 441 221" fill="none" xmlns="http://www.w3.org/2000/svg">
<path fill-rule="evenodd" clip-rule="evenodd" d="M140.555 46.6994C140.025 48.9273 145.65 49.8828 147.38 48.3423C154.025 42.4338 161.98 35.5503 162.91 26.8289C163.41 22.1294 153.55 15.8748 150.455 19.5115C144.205 26.863 142.61 38.0121 140.555 46.6994ZM107.22 45.9243C104.995 35.6478 110.21 24.3865 106.18 16.1916C104.1 11.9601 89.03 13.9053 89.39 18.5853C90.175 28.7691 95.49 38.6508 99.215 46.7091C100.32 49.093 107.775 48.4788 107.22 45.9243ZM66.235 65.9654C58.58 58.219 55.3 47.9474 48.72 44.7689C43.575 42.2826 34.41 51.3306 36.455 56.5566C39.76 65.0148 50.53 69.2024 59.355 71.9958C62.29 72.9171 68.37 68.1299 66.235 65.9654ZM48.72 105.565C40.245 103.854 30.375 102.816 22.79 106.881C19.25 108.778 20.355 118.177 24.375 118.606C32.615 119.488 41.68 115.31 49.67 112.302C51.84 111.483 50.995 106.028 48.72 105.565ZM60.69 144.365C54.325 147.865 45.885 148.943 41.555 153.077C38.78 155.724 44.485 163.777 48.13 162.461C54.485 160.17 59.545 153.325 64.4 149.031C65.89 147.709 62.45 143.4 60.69 144.365Z" fill="#F6C100"/>
<mask id="mask0_2_102" style="mask-type:luminance" maskUnits="userSpaceOnUse" x="178" y="175" width="11" height="15">
<path d="M178.88 175.024H188.215V190H178.88V175.024Z" fill="white"/>
</mask>
<g mask="url(#mask0_2_102)">
<path fill-rule="evenodd" clip-rule="evenodd" d="M181.37 189.946C185.29 186.807 188.04 184.116 188.035 182.668C188.025 181.21 184.75 178.651 180.005 175.775C180.13 176.257 180.245 176.745 180.355 177.237C181.14 180.869 181.435 184.657 181.435 188.304V188.318C181.435 188.864 181.41 189.405 181.37 189.946Z" fill="#E77813"/>
</g>
<path fill-rule="evenodd" clip-rule="evenodd" d="M154.715 162.617C159.315 165.976 157.815 172.128 155.465 176.633C159.53 182.497 159.41 188.338 155.665 193.164C159.345 199.482 158.35 202.29 156.955 205.854C160.625 203.138 169.31 198.965 177.05 193.252C177.35 191.614 177.59 189.961 177.59 188.318V188.304C177.59 184.872 177.32 181.347 176.595 178.012C176.215 176.257 175.705 174.551 175.045 172.938C167.945 169.067 160.975 165.074 154.715 162.617Z" fill="#1C3F60"/>
<mask id="mask1_2_102" style="mask-type:luminance" maskUnits="userSpaceOnUse" x="59" y="53" width="113" height="160">
<path d="M59.84 53.968H171.2V212.259H59.84V53.968Z" fill="white"/>
</mask>
<g mask="url(#mask1_2_102)">
<path fill-rule="evenodd" clip-rule="evenodd" d="M102.615 193.5C99.43 193.354 96.965 190.707 97.115 187.602C97.265 184.496 99.97 182.098 103.155 182.249C119.25 183.004 131.46 181.557 143.645 180.114V180.109C144.335 180.026 144.235 180.04 146.07 179.826C149.23 179.455 152.095 181.654 152.47 184.735C152.84 187.816 150.58 190.619 147.42 190.995C147.195 191.019 147.33 191.004 145.04 191.277H145.02C132.29 192.789 119.535 194.305 102.615 193.5ZM108.04 212.016C104.855 212.02 102.27 209.51 102.27 206.404C102.27 203.294 104.855 200.769 108.04 200.754C108.64 200.754 109.31 200.749 110.025 200.735C111.535 200.71 113.245 200.652 115.12 200.564C116.65 200.496 118.45 200.379 120.5 200.228C129.335 199.565 138.415 198.327 144.75 196.62C147.81 195.796 150.98 197.551 151.825 200.535C152.67 203.523 150.875 206.614 147.815 207.438C140.51 209.403 130.655 210.787 121.355 211.484C119.66 211.606 117.75 211.723 115.66 211.821C113.92 211.903 112.09 211.962 110.205 211.991C109.515 212.001 108.795 212.011 108.04 212.016ZM170.225 93.0606C171.405 100.324 159.98 102.118 158.8 94.8449C154.2 73.1706 134.26 64.4444 115 65.9849C96.915 67.4279 78.02 79.7129 73.5 96.9704C71.135 106.009 73.14 116.339 78.175 124.202C82.88 131.559 89.64 135.931 96.22 142.893C97.32 144.053 98.355 145.326 99.31 146.681C102.25 150.844 104.32 155.714 105.255 160.575C105.825 163.539 106.555 164.314 108.15 164.455C119.745 165.493 133.91 164.85 145.255 162.51C148.37 161.871 151.425 163.821 152.075 166.863C152.72 169.9 150.72 172.889 147.605 173.532C140.205 175.053 126.265 176.004 113.475 175.648C110.77 175.575 108.28 175.458 106.1 175.302C101.875 174.995 93.225 175.117 94.16 168.258C94.81 163.495 93.105 157.728 89.82 153.067C82.44 142.6 72.96 138.427 66.73 127.283C61.67 118.235 59.695 106.725 61.725 96.6048C66.53 72.6929 91.91 55.6938 116.965 54.67C141.32 53.6706 165.59 66.0239 170.225 93.0606Z" fill="#E77813"/>
</g>
<path d="M166.61 137.511C166.715 139.296 166.54 141.133 166.09 143.03C165.81 144.044 165.33 144.838 164.65 145.409C163.98 145.984 163.175 146.286 162.23 146.325C161.4 146.364 160.59 146.13 159.79 145.623C158.99 145.116 158.49 144.317 158.29 143.225C157.595 139.949 157.11 136.137 156.83 131.778C156.72 130.599 156.675 129.414 156.69 128.229C156.715 127.05 156.73 125.88 156.73 124.719C156.73 124.188 156.735 123.642 156.75 123.081C156.76 122.526 156.77 121.97 156.77 121.424C156.77 121.126 156.74 120.81 156.69 120.468C156.65 120.132 156.54 119.776 156.37 119.396L155.85 118.343L155.11 119.805C155.04 119.976 154.975 120.147 154.91 120.312C154.84 120.483 154.77 120.654 154.69 120.819C154.45 121.497 154.21 122.165 153.97 122.828C153.73 123.491 153.49 124.164 153.25 124.836C152.82 125.982 152.41 127.132 152.01 128.288C151.62 129.433 151.2 130.564 150.75 131.681L150.69 131.876C150.45 132.514 150.195 133.163 149.93 133.826C149.675 134.489 149.375 135.127 149.03 135.737C148.03 137.35 146.71 138.194 145.07 138.272C143.48 138.34 142.135 137.623 141.03 136.127C140.4 135.322 139.855 134.464 139.39 133.553C138.92 132.646 138.475 131.715 138.05 130.764C137.57 129.75 137.095 128.727 136.63 127.683C136.16 126.63 135.7 125.577 135.25 124.524C135.035 124.017 134.81 123.505 134.57 122.984C134.33 122.452 134.1 121.921 133.89 121.385C133.795 121.151 133.65 120.897 133.45 120.624C133.26 120.351 133.015 120.069 132.71 119.766L131.93 119.103L131.61 121.073C131.57 121.414 131.52 121.765 131.47 122.126C131.43 122.477 131.39 122.823 131.35 123.159C131.215 124.446 131.075 125.728 130.93 127.001C130.795 128.263 130.655 129.531 130.51 130.803C130.335 132.597 130.155 134.386 129.97 136.166C129.78 137.935 129.58 139.715 129.37 141.509C129.34 142.123 129.28 142.728 129.19 143.322C129.11 143.907 128.98 144.468 128.81 144.999C128.53 146.052 127.99 146.886 127.19 147.495C126.39 148.11 125.49 148.392 124.49 148.353C123.45 148.314 122.555 147.954 121.81 147.261C121.06 146.574 120.62 145.721 120.49 144.707C120.21 142.615 120.21 140.704 120.49 138.974C121.73 131.5 123.13 123.895 124.69 116.159C125.035 114.365 125.675 112.624 126.61 110.933C127.475 109.451 128.62 108.593 130.05 108.359C130.26 108.32 130.47 108.3 130.67 108.3C131.815 108.3 132.89 108.744 133.89 109.626C135.49 111.045 137.175 113.073 138.95 115.71C139.495 116.52 140.01 117.368 140.49 118.265C140.98 119.162 141.49 120.069 142.01 120.975C142.22 121.419 142.435 121.853 142.65 122.282C142.875 122.701 143.115 123.13 143.37 123.569L143.93 124.583L144.41 123.51C144.58 123.111 144.74 122.706 144.89 122.301C145.05 121.887 145.215 121.477 145.39 121.073C145.735 120.166 146.08 119.289 146.43 118.44C146.775 117.597 147.14 116.754 147.53 115.905C148.395 114.048 149.435 112.137 150.65 110.172C151.235 109.197 151.995 108.291 152.93 107.442C154.555 105.99 156.235 105.429 157.97 105.765C159.7 106.107 161.02 107.267 161.93 109.256C163.515 112.678 164.57 116.9 165.09 121.931L165.41 125.031C165.65 127.059 165.87 129.136 166.07 131.252C166.28 133.358 166.46 135.444 166.61 137.511Z" fill="#1C3F60"/>
<path d="M196.902 139.13C197.527 139.091 198.202 139.183 198.922 139.403C199.652 139.627 200.232 140.178 200.662 141.06C201.312 142.416 201.012 143.746 199.762 145.058C199.002 145.867 198.102 146.52 197.062 147.027C192.622 149.133 187.767 149.679 182.502 148.665C179.422 148.056 177.412 146.091 176.482 142.776C175.882 140.685 175.632 138.584 175.742 136.478C175.847 134.362 176.042 132.373 176.322 130.511C176.562 128.951 176.822 127.401 177.102 125.85C177.382 124.29 177.652 122.75 177.922 121.229C178.067 120.488 178.202 119.757 178.322 119.025C178.442 118.299 178.567 117.563 178.702 116.822L178.762 116.607C178.802 116.412 178.832 116.208 178.862 115.983C178.902 115.764 178.887 115.535 178.822 115.301C178.432 113.443 179.262 111.976 181.302 110.894C181.687 110.689 182.082 110.499 182.482 110.328C182.882 110.163 183.287 110.046 183.702 109.977L185.942 109.665C187.527 109.47 189.142 109.266 190.782 109.041C192.432 108.822 194.082 108.681 195.722 108.612C195.852 108.612 195.987 108.612 196.122 108.612C197.762 108.612 199.082 109.071 200.082 109.977C200.987 110.757 201.452 111.723 201.482 112.863C201.522 114.15 201.027 115.218 200.002 116.061C198.972 116.91 197.632 117.382 195.982 117.485C194.902 117.553 193.822 117.573 192.742 117.543C191.672 117.504 190.602 117.446 189.522 117.368L188.182 117.329C187.512 117.29 186.987 117.285 186.602 117.309C186.227 117.324 185.922 117.446 185.682 117.68C185.442 117.889 185.302 118.182 185.262 118.557C185.222 118.923 185.202 119.425 185.202 120.059C185.202 120.712 185.202 121.356 185.202 121.989C185.202 122.628 185.202 123.271 185.202 123.92V126.455L185.882 126.357C186.267 126.279 186.642 126.211 187.002 126.143C187.362 126.079 187.732 125.997 188.122 125.889C188.922 125.763 189.707 125.631 190.482 125.499C191.267 125.358 192.042 125.256 192.802 125.187C194.747 125.022 196.547 125.119 198.202 125.48C199.692 125.792 200.492 126.689 200.602 128.171C200.667 129.019 200.472 129.687 200.022 130.179C199.582 130.677 199.112 131.037 198.622 131.271C197.407 131.886 196.227 132.237 195.082 132.324C193.972 132.432 192.842 132.51 191.682 132.558C190.522 132.612 189.352 132.67 188.182 132.734C187.687 132.734 187.187 132.753 186.682 132.792C186.187 132.822 185.682 132.831 185.162 132.831L184.642 132.89V133.397C184.642 133.631 184.642 133.879 184.642 134.138C184.642 134.386 184.642 134.625 184.642 134.859C184.642 135.576 184.642 136.297 184.642 137.024C184.642 137.755 184.652 138.467 184.682 139.169C184.682 139.417 184.762 139.632 184.922 139.812C185.082 139.998 185.212 140.139 185.322 140.241C185.452 140.349 185.622 140.456 185.822 140.573C186.032 140.69 186.262 140.748 186.502 140.748C188.447 140.622 190.602 140.368 192.962 139.988C193.267 139.949 193.567 139.89 193.862 139.812C194.152 139.725 194.442 139.647 194.722 139.578C195.107 139.476 195.482 139.383 195.842 139.305C196.202 139.218 196.552 139.159 196.902 139.13Z" fill="#1C3F60"/>
<path d="M237.043 114.95C238.843 116.666 240.233 118.694 241.223 121.034C242.223 123.364 242.723 125.811 242.723 128.385C242.723 133.884 240.483 138.243 236.003 141.45C230.283 145.545 224.008 147.744 217.183 148.041C215.583 148.119 214.023 147.72 212.503 146.832C211.528 146.325 210.923 145.565 210.683 144.551C210.333 143.371 210.563 142.133 211.363 140.846C212.013 139.807 212.363 138.711 212.403 137.55C212.428 135.42 212.463 133.294 212.503 131.174C212.543 129.043 212.573 126.894 212.603 124.719C212.643 123.276 212.668 121.824 212.683 120.351C212.693 118.869 212.723 117.407 212.763 115.964C212.763 114.95 212.853 114.16 213.043 113.585C213.243 113 213.588 112.542 214.083 112.2C214.588 111.864 215.328 111.547 216.303 111.245C217.063 111.011 217.853 110.806 218.683 110.621C219.523 110.426 220.343 110.245 221.143 110.075C221.408 110.011 221.683 109.953 221.963 109.899C222.243 109.851 222.523 109.792 222.803 109.724L222.843 110.016H223.323C225.948 109.929 228.448 110.304 230.823 111.147C233.208 111.996 235.283 113.263 237.043 114.95ZM229.463 133.65C230.673 132.939 231.613 131.968 232.283 130.745C232.963 129.511 233.283 128.181 233.243 126.747C233.243 125.265 232.873 123.9 232.143 122.652C231.423 121.404 230.443 120.405 229.203 119.649C228.123 119.016 226.983 118.587 225.783 118.362C224.593 118.143 223.408 117.967 222.223 117.836C221.983 117.797 221.743 117.768 221.503 117.738C221.263 117.699 221.003 117.66 220.723 117.621L220.043 117.524L221.023 137.96L221.803 137.55C222.253 137.316 222.693 137.102 223.123 136.907C223.563 136.702 223.988 136.492 224.403 136.283C225.308 135.883 226.173 135.474 227.003 135.054C227.843 134.625 228.663 134.157 229.463 133.65Z" fill="#1C3F60"/>
<path d="M285.763 143.732C285.828 145.165 285.723 146.433 285.443 147.534C285.068 149.094 284.068 149.977 282.443 150.186C280.803 150.381 279.603 149.767 278.843 148.353C278.148 147.066 277.748 145.818 277.643 144.609C277.548 143.352 277.473 142.084 277.423 140.807C277.368 139.52 277.323 138.252 277.283 137.004C277.283 136.566 277.273 136.117 277.263 135.659C277.248 135.205 277.223 134.737 277.183 134.255C277.183 134.06 277.183 133.845 277.183 133.611C277.183 133.368 277.183 133.143 277.183 132.948V131.72H259.443V132.987C259.443 133.221 259.443 133.446 259.443 133.65C259.443 133.86 259.443 134.06 259.443 134.255V137.804C259.483 138.818 259.503 139.846 259.503 140.885C259.503 141.913 259.503 142.947 259.503 143.985V144.141C259.543 144.483 259.548 144.814 259.523 145.136C259.508 145.462 259.483 145.794 259.443 146.13C259.348 147.174 259.028 148.002 258.483 148.626C257.948 149.25 257.268 149.562 256.443 149.562C256.443 149.562 256.428 149.562 256.403 149.562C256.388 149.562 256.383 149.562 256.383 149.562C255.513 149.562 254.793 149.255 254.223 148.646C253.648 148.051 253.328 147.256 253.263 146.267C252.953 141.172 252.673 136.488 252.423 132.207C252.183 127.932 251.973 123.871 251.803 120.02C251.773 119.074 251.848 118.099 252.023 117.095C252.193 116.095 252.368 115.174 252.543 114.326C252.713 113.458 253.093 112.766 253.683 112.259C254.268 111.752 254.963 111.532 255.763 111.596C256.523 111.635 257.148 111.918 257.643 112.434C258.148 112.956 258.473 113.673 258.623 114.579C258.728 115.506 258.813 116.446 258.883 117.407C258.948 118.372 259.013 119.328 259.083 120.273C259.123 120.678 259.148 121.083 259.163 121.482C259.173 121.887 259.203 122.292 259.243 122.691L259.403 124.875H277.123L277.243 122.184C277.308 121.38 277.353 120.6 277.383 119.844C277.423 119.079 277.473 118.304 277.543 117.524C277.583 116.851 277.628 116.149 277.683 115.418C277.733 114.691 277.808 113.955 277.903 113.214C278.048 112.512 278.293 111.84 278.643 111.186C278.843 110.826 279.148 110.479 279.563 110.153C279.988 109.831 280.583 109.699 281.343 109.763C282.513 109.909 283.243 110.518 283.523 111.596C283.868 112.883 284.073 114.287 284.143 115.808C284.463 120.878 284.753 125.724 285.023 130.335C285.303 134.952 285.548 139.417 285.763 143.732Z" fill="#1C3F60"/>
<path d="M335.098 109.002C336.178 109.08 337.078 109.504 337.798 110.27C338.528 111.025 338.948 112.005 339.058 113.214C339.123 114.102 339.038 114.979 338.798 115.847C337.888 119.371 336.908 123.12 335.858 127.098C334.803 131.067 333.738 135.045 332.658 139.032C332.068 141.129 331.358 143.03 330.518 144.746C330.103 145.526 329.478 146.296 328.638 147.047C327.808 147.788 326.658 148.11 325.178 148.002C322.708 147.837 321.128 146.496 320.438 143.985C320.128 142.845 319.838 141.675 319.558 140.475C319.278 139.266 319.018 138.072 318.778 136.887C318.668 136.356 318.558 135.829 318.438 135.308C318.318 134.776 318.203 134.255 318.098 133.748C318.028 133.514 317.943 133.124 317.838 132.578L317.258 130.199L315.238 134.976C314.718 136.185 314.203 137.37 313.698 138.525C313.203 139.671 312.698 140.817 312.178 141.957C311.508 143.415 310.828 144.668 310.138 145.721C308.898 147.646 307.248 148.5 305.198 148.295C303.008 148.1 301.608 146.959 300.998 144.863C299.743 140.768 298.768 136.946 298.078 133.397C297.663 131.135 297.263 128.873 296.878 126.611C296.503 124.339 296.123 122.087 295.738 119.864C295.628 119.191 295.523 118.509 295.418 117.816C295.323 117.114 295.203 116.427 295.058 115.749C294.988 115.242 294.928 114.73 294.878 114.209C294.823 113.692 294.798 113.175 294.798 112.668C294.863 111.006 295.628 110.075 297.098 109.88C297.268 109.841 297.423 109.821 297.558 109.821C298.728 109.821 299.578 110.445 300.098 111.693C300.698 113.19 301.278 114.706 301.838 116.237C302.408 117.772 302.908 119.298 303.338 120.819C303.683 122.004 303.983 123.208 304.238 124.427C304.503 125.636 304.768 126.855 305.038 128.073C305.143 128.619 305.248 129.156 305.358 129.672C305.463 130.194 305.583 130.725 305.718 131.271C305.758 131.544 305.828 131.866 305.938 132.227L306.498 134.567L307.178 133.085C307.243 132.919 307.308 132.773 307.378 132.656C307.458 132.539 307.508 132.432 307.538 132.324C307.643 132.09 307.738 131.89 307.818 131.72C307.908 131.554 307.978 131.383 308.018 131.213C308.803 128.746 309.583 126.289 310.358 123.842C311.143 121.385 311.938 118.942 312.738 116.51C312.803 116.315 312.863 116.13 312.918 115.944C312.968 115.749 313.018 115.549 313.058 115.34C313.163 115.042 313.248 114.75 313.318 114.462C313.383 114.18 313.468 113.897 313.578 113.624C313.988 112.571 314.578 111.771 315.338 111.225C316.098 110.67 316.948 110.401 317.898 110.426C319.868 110.533 321.183 111.684 321.838 113.877C322.158 114.93 322.418 116.178 322.618 117.621C322.828 119.055 323.023 120.39 323.198 121.638C323.263 122.106 323.323 122.569 323.378 123.023C323.428 123.481 323.488 123.895 323.558 124.271C323.558 124.378 323.618 124.758 323.738 125.421C323.858 126.075 323.998 126.816 324.158 127.644C324.318 128.478 324.468 129.253 324.618 129.965C324.778 130.667 324.888 131.135 324.958 131.369L325.538 133.202L326.058 131.369C326.298 130.423 326.563 129.175 326.858 127.625C327.148 126.065 327.438 124.476 327.718 122.847C327.928 121.809 328.123 120.79 328.298 119.786C328.468 118.786 328.643 117.885 328.818 117.075C328.883 116.841 328.943 116.607 328.998 116.373C329.048 116.13 329.108 115.886 329.178 115.652C329.378 114.808 329.588 113.994 329.818 113.214C330.043 112.434 330.328 111.83 330.678 111.401C331.998 109.738 333.468 108.939 335.098 109.002Z" fill="#1C3F60"/>
<path d="M385.998 140.046C386.038 140.28 386.088 140.495 386.158 140.69C386.118 141.952 385.828 143.005 385.298 143.849C384.763 144.697 384.008 145.248 383.038 145.506C382.063 145.818 381.123 145.794 380.218 145.428C379.323 145.053 378.598 144.424 378.038 143.537C377.448 142.562 376.948 141.348 376.538 139.89C376.388 139.344 376.143 138.857 375.798 138.428C375.448 137.989 374.828 137.745 373.938 137.706C372.923 137.667 371.918 137.638 370.918 137.609C369.918 137.57 368.908 137.541 367.898 137.511C366.578 137.433 365.243 137.375 363.898 137.336C362.548 137.287 361.198 137.238 359.838 137.199C359.488 137.199 359.108 137.346 358.698 137.628C358.283 137.916 357.968 138.213 357.758 138.525C357.478 138.993 357.203 139.476 356.938 139.968C356.683 140.451 356.438 140.934 356.198 141.411C355.958 141.879 355.703 142.367 355.438 142.874C355.183 143.381 354.903 143.878 354.598 144.356C353.383 146.413 351.908 147.066 350.178 146.325C349.483 146.052 348.918 145.516 348.478 144.707C348.048 143.888 348.008 142.942 348.358 141.86C349.568 138.184 351.128 134.011 353.038 129.341C354.248 126.367 355.768 123.018 357.598 119.298C358.118 118.26 358.698 117.153 359.338 115.983C359.988 114.813 360.698 113.673 361.458 112.551C362.258 111.45 363.418 110.475 364.938 109.626C366.083 108.954 367.178 108.612 368.218 108.612C370.058 108.612 371.583 109.607 372.798 111.596C375.183 115.588 377.518 119.742 379.798 124.056C382.088 128.361 383.948 132.89 385.378 137.648C385.508 138.091 385.628 138.52 385.738 138.935C385.843 139.339 385.928 139.71 385.998 140.046ZM362.918 128.639H372.638L367.078 117.524L362.918 128.639Z" fill="#1C3F60"/>
<path d="M432.208 112.044C432.418 113.058 432.528 114.145 432.528 115.301L432.428 119.454C432.358 122.667 432.288 125.923 432.208 129.224C432.138 132.514 432.038 135.795 431.908 139.071C431.798 142.596 430.738 144.897 428.728 145.974C426.793 147.018 424.298 146.691 421.248 144.999C419.688 144.132 418.253 143.079 416.948 141.84C415.653 140.607 414.588 139.5 413.748 138.525C412.708 137.37 411.718 136.161 410.788 134.898C409.853 133.626 408.933 132.363 408.028 131.115C407.653 130.608 407.278 130.101 406.908 129.594C406.548 129.087 406.178 128.58 405.808 128.073L405.588 127.722C405.388 127.449 405.158 127.171 404.908 126.884C404.668 126.601 404.358 126.318 403.988 126.045L403.088 125.382V127.001C403.088 127.21 403.088 127.41 403.088 127.605C403.088 127.791 403.088 127.976 403.088 128.171L402.948 131.466C402.868 133.563 402.793 135.688 402.728 137.843C402.658 139.988 402.573 142.108 402.468 144.2C402.438 144.98 402.213 145.755 401.788 146.52C401.268 147.573 400.538 148.119 399.608 148.158C398.713 148.227 397.968 147.763 397.368 146.774C396.818 145.969 396.513 145.175 396.448 144.395C395.778 139.091 395.373 134.211 395.228 129.75C395.093 125.295 395.218 121.014 395.608 116.919C395.648 116.208 395.838 115.467 396.188 114.696C396.733 113.307 397.648 112.39 398.928 111.947C399.418 111.82 399.893 111.752 400.348 111.752C401.173 111.752 401.968 111.976 402.728 112.415C403.833 113.014 404.773 113.79 405.548 114.735C406.413 115.818 407.278 116.914 408.148 118.031C409.013 119.152 409.858 120.249 410.688 121.326C411.168 121.941 411.638 122.55 412.108 123.159C412.588 123.774 413.068 124.378 413.548 124.973C414.373 126.065 415.198 127.137 416.028 128.19C416.868 129.234 417.708 130.291 418.548 131.369L421.088 134.567L422.448 134.06L422.488 133.143C422.528 132.939 422.548 132.734 422.548 132.539C422.548 132.334 422.558 132.129 422.588 131.934C422.588 131.154 422.608 130.374 422.648 129.594C422.688 128.814 422.708 128.034 422.708 127.254C422.773 125.334 422.838 123.393 422.908 121.443C422.973 119.484 423.038 117.519 423.108 115.554C423.213 114.063 423.548 112.605 424.108 111.186C424.478 110.28 425.073 109.587 425.888 109.119C426.713 108.642 427.608 108.451 428.568 108.554C429.473 108.661 430.258 109.036 430.928 109.685C431.608 110.323 432.033 111.108 432.208 112.044Z" fill="#1C3F60"/>
<path d="M290.653 159.2V171.173H288.853V165.401C288.413 165.533 287.978 165.616 287.553 165.655C287.123 165.694 286.618 165.713 286.033 165.713C285.418 165.713 284.763 165.665 284.073 165.557C283.378 165.455 282.783 165.319 282.293 165.148C281.998 165.343 281.663 165.518 281.293 165.674C281.903 166.43 282.618 167.21 283.433 168.014C284.258 168.809 285.123 169.555 286.033 170.257L284.833 171.427C284.003 170.725 283.218 170.013 282.473 169.282C281.738 168.556 281.093 167.878 280.533 167.254C279.973 166.62 279.523 166.074 279.193 165.616C278.873 165.163 278.673 164.807 278.593 164.543C278.513 164.285 278.473 164.032 278.473 163.783C278.473 163.51 278.578 163.252 278.793 163.003C279.018 162.759 279.383 162.632 279.893 162.632C280.263 162.632 280.583 162.72 280.853 162.886C281.133 163.057 281.383 163.286 281.613 163.568C281.918 163.295 282.123 162.944 282.233 162.515C282.353 162.086 282.413 161.657 282.413 161.228C282.413 160.79 282.378 160.4 282.313 160.058C282.243 159.707 282.158 159.425 282.053 159.2H277.573V157.66H292.973V159.2H290.653ZM285.793 164.173C286.378 164.173 286.903 164.149 287.373 164.095C287.853 164.032 288.343 163.934 288.853 163.802V159.2H283.833C283.938 159.449 284.023 159.742 284.093 160.078C284.173 160.405 284.213 160.79 284.213 161.228C284.213 161.843 284.138 162.374 283.993 162.827C283.858 163.271 283.663 163.642 283.413 163.939C284.183 164.095 284.978 164.173 285.793 164.173Z" fill="#E77813"/>
<path d="M294.852 157.66H302.932V159.2H294.852V157.66ZM295.852 165.908C295.852 165.431 295.952 164.982 296.152 164.563C296.352 164.149 296.612 163.812 296.932 163.549C297.357 163.188 297.872 162.925 298.472 162.769C299.082 162.603 299.897 162.515 300.912 162.515H303.312V164.056H301.332C300.422 164.056 299.742 164.105 299.292 164.192C298.837 164.27 298.472 164.436 298.192 164.68C297.832 164.953 297.652 165.401 297.652 166.025C297.652 166.742 297.922 167.429 298.472 168.092C299.032 168.746 299.837 169.477 300.892 170.296L299.692 171.427C298.982 170.857 298.337 170.286 297.752 169.711C297.177 169.126 296.717 168.521 296.372 167.897C296.022 167.273 295.852 166.61 295.852 165.908Z" fill="#E77813"/>
<path d="M317.152 157.66V159.2H314.832V171.173H313.032V167.293C312.617 167.556 312.117 167.79 311.532 167.995C310.957 168.205 310.292 168.307 309.532 168.307C308.197 168.307 307.117 167.873 306.292 167C305.462 166.118 304.942 164.953 304.732 163.51C305.652 163.315 306.332 163.052 306.772 162.71C307.222 162.374 307.452 161.887 307.452 161.248C307.452 160.848 307.362 160.468 307.192 160.117C307.032 159.766 306.842 159.464 306.632 159.2H303.892V157.66H317.152ZM306.772 164.641C307.052 165.343 307.417 165.879 307.872 166.24C308.337 166.591 308.937 166.766 309.672 166.766C310.402 166.766 311.042 166.62 311.592 166.318C312.152 166.006 312.632 165.645 313.032 165.226V159.2H308.592C309.017 159.956 309.232 160.721 309.232 161.501C309.232 163.076 308.412 164.124 306.772 164.641Z" fill="#E77813"/>
<path d="M312.686 154.403C312.686 154.052 312.816 153.755 313.066 153.506C313.306 153.263 313.586 153.136 313.906 153.136C314.241 153.136 314.526 153.263 314.766 153.506C315.006 153.755 315.126 154.052 315.126 154.403C315.126 154.754 315.006 155.057 314.766 155.3C314.526 155.549 314.241 155.671 313.906 155.671C313.586 155.671 313.306 155.549 313.066 155.3C312.816 155.057 312.686 154.754 312.686 154.403Z" fill="#E77813"/>
<path d="M333.631 166.298C333.631 165.626 333.311 165.021 332.671 164.485C332.041 163.954 331.016 163.471 329.591 163.042L330.131 161.599H338.151V159.2H327.651V157.66H342.271V159.2H339.951V171.173H338.151V163.139H334.911C334.401 163.139 333.976 163.13 333.631 163.1C333.296 163.076 333.036 163.052 332.851 163.022C333.731 163.481 334.371 163.993 334.771 164.563C335.181 165.124 335.391 165.748 335.391 166.435C335.391 167.176 335.176 167.79 334.751 168.268C334.321 168.736 333.776 169.067 333.111 169.262C333.521 169.496 334.001 169.726 334.551 169.945C335.111 170.169 335.636 170.35 336.131 170.491L335.411 172.012C334.661 171.724 333.921 171.368 333.191 170.939C332.471 170.501 331.801 170.052 331.191 169.594C330.391 169.555 329.731 169.448 329.211 169.262C328.691 169.067 328.431 168.716 328.431 168.209C328.431 167.888 328.531 167.62 328.731 167.41C328.931 167.205 329.221 167.098 329.611 167.098C329.916 167.098 330.231 167.171 330.551 167.312C330.871 167.459 331.261 167.717 331.731 168.092C332.316 168.014 332.776 167.815 333.111 167.488C333.456 167.152 333.631 166.757 333.631 166.298Z" fill="#E77813"/>
<path d="M345.704 159.2V171.173H343.904V159.2H341.924V157.66H348.004V159.2H345.704Z" fill="#E77813"/>
<path d="M349.918 157.66H362.598V159.2H360.298V171.173H358.498V164.699H354.458V165.869C354.458 166.274 354.348 166.581 354.138 166.786C353.938 166.996 353.663 167.098 353.318 167.098C352.958 167.098 352.578 166.952 352.178 166.649C351.788 166.337 351.448 165.967 351.158 165.538C350.878 165.099 350.738 164.675 350.738 164.27C350.738 163.949 350.838 163.681 351.038 163.471C351.238 163.266 351.588 163.159 352.098 163.159H358.498V159.2H349.918V157.66Z" fill="#E77813"/>
<path d="M358.156 154.403C358.156 154.052 358.286 153.755 358.536 153.506C358.776 153.263 359.056 153.136 359.376 153.136C359.711 153.136 359.996 153.263 360.236 153.506C360.476 153.755 360.596 154.052 360.596 154.403C360.596 154.754 360.476 155.057 360.236 155.3C359.996 155.549 359.711 155.671 359.376 155.671C359.056 155.671 358.776 155.549 358.536 155.3C358.286 155.057 358.156 154.754 358.156 154.403Z" fill="#E77813"/>
<path d="M383.601 166.435C383.601 167.449 383.261 168.205 382.581 168.697C381.901 169.194 381.066 169.438 380.081 169.438C378.801 169.438 377.661 168.98 376.661 168.053C375.661 167.117 374.691 165.577 373.761 163.432L375.341 162.866C375.981 164.417 376.671 165.635 377.421 166.532C378.166 167.42 379.001 167.858 379.921 167.858C380.466 167.858 380.921 167.737 381.281 167.488C381.651 167.23 381.841 166.815 381.841 166.24C381.841 165.709 381.686 165.236 381.381 164.816C381.071 164.387 380.681 163.993 380.201 163.627C379.801 163.705 379.371 163.754 378.921 163.763L378.801 162.242C379.811 162.218 380.526 162.047 380.941 161.735C381.366 161.423 381.581 160.994 381.581 160.448C381.581 159.932 381.406 159.551 381.061 159.317C380.711 159.083 380.306 158.966 379.841 158.966C379.281 158.966 378.781 159.04 378.341 159.181C377.901 159.327 377.426 159.522 376.921 159.766L376.381 158.264C376.766 158.069 377.241 157.889 377.801 157.718C378.361 157.538 379.011 157.445 379.761 157.445C380.921 157.445 381.806 157.733 382.421 158.303C383.031 158.864 383.341 159.571 383.341 160.429C383.341 161.55 382.846 162.413 381.861 163.022C382.021 163.169 382.166 163.315 382.301 163.471C382.861 163.539 383.406 163.568 383.941 163.568C384.421 163.568 384.846 163.549 385.221 163.51C385.591 163.461 385.971 163.388 386.361 163.295V159.2H384.721V157.66H390.481V159.2H388.161V171.173H386.361V164.875C386.001 164.968 385.646 165.031 385.301 165.07C384.966 165.099 384.606 165.109 384.221 165.109C383.966 165.109 383.646 165.089 383.261 165.05C383.486 165.479 383.601 165.943 383.601 166.435Z" fill="#E77813"/>
<path d="M392.359 157.66H405.039V159.2H402.739V171.173H400.939V164.699H396.899V165.869C396.899 166.274 396.789 166.581 396.579 166.786C396.379 166.996 396.104 167.098 395.759 167.098C395.399 167.098 395.019 166.952 394.619 166.649C394.229 166.337 393.889 165.967 393.599 165.538C393.319 165.099 393.179 164.675 393.179 164.27C393.179 163.949 393.279 163.681 393.479 163.471C393.679 163.266 394.029 163.159 394.539 163.159H400.939V159.2H392.359V157.66Z" fill="#E77813"/>
<path d="M406.944 157.66H415.264V159.2H406.944V157.66ZM411.484 164.699V165.869C411.484 166.274 411.374 166.581 411.164 166.786C410.964 166.996 410.689 167.098 410.344 167.098C409.984 167.098 409.604 166.952 409.204 166.649C408.814 166.337 408.474 165.967 408.184 165.538C407.904 165.099 407.764 164.675 407.764 164.27C407.764 163.949 407.864 163.681 408.064 163.471C408.264 163.266 408.614 163.159 409.124 163.159H415.524V164.699H411.484Z" fill="#E77813"/>
<path d="M426.771 159.2V171.173H424.971V164.056H422.531C421.621 164.056 420.941 164.105 420.491 164.192C420.036 164.27 419.671 164.436 419.391 164.68C419.031 164.953 418.851 165.401 418.851 166.025C418.851 166.742 419.121 167.429 419.671 168.092C420.231 168.746 421.036 169.477 422.091 170.296L420.891 171.427C420.181 170.857 419.536 170.286 418.951 169.711C418.376 169.126 417.916 168.521 417.571 167.897C417.221 167.273 417.051 166.61 417.051 165.908C417.051 165.431 417.151 164.982 417.351 164.563C417.551 164.149 417.811 163.812 418.131 163.549C418.556 163.188 419.071 162.925 419.671 162.769C420.281 162.603 421.096 162.515 422.111 162.515H424.971V159.2H416.051V157.66H429.071V159.2H426.771Z" fill="#E77813"/>
<path d="M424.623 154.403C424.623 154.052 424.753 153.755 425.003 153.506C425.243 153.263 425.523 153.136 425.843 153.136C426.178 153.136 426.463 153.263 426.703 153.506C426.943 153.755 427.063 154.052 427.063 154.403C427.063 154.754 426.943 155.057 426.703 155.3C426.463 155.549 426.178 155.671 425.843 155.671C425.523 155.671 425.243 155.549 425.003 155.3C424.753 155.057 424.623 154.754 424.623 154.403Z" fill="#E77813"/>
</svg>
