<svg xmlns="http://www.w3.org/2000/svg" xmlns:xlink="http://www.w3.org/1999/xlink" width="500" zoomAndPan="magnify" viewBox="0 0 375 374.999991" height="500" preserveAspectRatio="xMidYMid meet" version="1.0"><defs><g/><clipPath id="8cf3e7dfe8"><path d="M 54.582031 116.316406 L 132 116.316406 L 132 207.066406 L 54.582031 207.066406 Z M 54.582031 116.316406 " clip-rule="nonzero"/></clipPath><clipPath id="3d24cbeacd"><path d="M 89.082031 174.160156 L 99.128906 174.160156 L 99.128906 193.839844 L 89.082031 193.839844 Z M 89.082031 174.160156 " clip-rule="nonzero"/></clipPath><clipPath id="f1e2c5624c"><path d="M 146.136719 175.484375 L 156.183594 175.484375 L 156.183594 195.164062 L 146.136719 195.164062 Z M 146.136719 175.484375 " clip-rule="nonzero"/></clipPath><clipPath id="1a272bb5e8"><path d="M 60.269531 167.90625 L 326.160156 167.90625 L 326.160156 178.675781 L 60.269531 178.675781 Z M 60.269531 167.90625 " clip-rule="nonzero"/></clipPath><clipPath id="099e728367"><path d="M 55.011719 120.597656 L 113 120.597656 L 113 160.59375 L 55.011719 160.59375 Z M 55.011719 120.597656 " clip-rule="nonzero"/></clipPath><clipPath id="e9e0feda66"><path d="M 54.582031 116.316406 L 74.363281 116.316406 L 74.363281 229.917969 L 54.582031 229.917969 Z M 54.582031 116.316406 " clip-rule="nonzero"/></clipPath><clipPath id="7061eedd90"><path d="M 58 138 L 81 138 L 81 175.730469 L 58 175.730469 Z M 58 138 " clip-rule="nonzero"/></clipPath><clipPath id="adba2be2ea"><path d="M 89 138 L 112 138 L 112 175.730469 L 89 175.730469 Z M 89 138 " clip-rule="nonzero"/></clipPath><clipPath id="705496df2e"><path d="M 84 117.980469 L 88 117.980469 L 88 130 L 84 130 Z M 84 117.980469 " clip-rule="nonzero"/></clipPath><clipPath id="b1e9bd9d84"><path d="M 48 222 L 85 222 L 85 246 L 48 246 Z M 48 222 " clip-rule="nonzero"/></clipPath><clipPath id="b91eee7f22"><path d="M 52.355469 222.75 L 84.832031 230.632812 L 81.316406 245.125 L 48.835938 237.242188 Z M 52.355469 222.75 " clip-rule="nonzero"/></clipPath><clipPath id="63f1230b8b"><path d="M 168.714844 167.90625 L 326.160156 167.90625 L 326.160156 178.675781 L 168.714844 178.675781 Z M 168.714844 167.90625 " clip-rule="nonzero"/></clipPath><clipPath id="3ae967d560"><path d="M 146.136719 168 L 178.257812 168 L 178.257812 178.5 L 146.136719 178.5 Z M 146.136719 168 " clip-rule="nonzero"/></clipPath></defs><rect x="-37.5" width="450" fill="#ffffff" y="-37.499999" height="449.999989" fill-opacity="1"/><rect x="-37.5" width="450" fill="#1c3f60" y="-37.499999" height="449.999989" fill-opacity="1"/><g fill="#f3f6fa" fill-opacity="1"><g transform="translate(83.860773, 228.169082)"><g><path d="M 15.28125 -36.390625 L 15.28125 -30.40625 C 19.21875 -36.601562 22.5625 -39.703125 25.3125 -39.703125 C 26.65625 -39.703125 28.914062 -39.015625 32.09375 -37.640625 C 35.28125 -36.265625 37.953125 -34.851562 40.109375 -33.40625 L 34.53125 -25.3125 C 31.1875 -27.789062 28.285156 -29.148438 25.828125 -29.390625 C 23.378906 -29.640625 21.425781 -29.15625 19.96875 -27.9375 C 18.519531 -26.726562 16.957031 -24.773438 15.28125 -22.078125 L 15.28125 2.34375 L 5.171875 0.078125 L 5.171875 -38.65625 Z M 15.28125 -36.390625 "/></g></g></g><g fill="#f3f6fa" fill-opacity="1"><g transform="translate(123.726809, 228.169082)"><g><path d="M 8.578125 -28.390625 L 4.203125 -35.75 C 7.972656 -36.71875 12.164062 -37.632812 16.78125 -38.5 C 21.394531 -39.363281 24.289062 -39.765625 25.46875 -39.703125 C 26.65625 -39.648438 29.03125 -37.882812 32.59375 -34.40625 C 36.15625 -30.9375 38.554688 -28.285156 39.796875 -26.453125 C 40.222656 -25.796875 40.4375 -23.617188 40.4375 -19.921875 C 40.4375 -16.234375 40.367188 -12.015625 40.234375 -7.265625 C 40.097656 -2.523438 40.054688 0.675781 40.109375 2.34375 L 30.078125 0 L 30.171875 -4.125 C 25.796875 0.238281 22.234375 2.421875 19.484375 2.421875 C 16.898438 2.367188 13.613281 -0.0820312 9.625 -4.9375 C 5.632812 -9.789062 3.640625 -13.265625 3.640625 -15.359375 C 3.640625 -17.035156 4.769531 -18.570312 7.03125 -19.96875 C 9.300781 -21.375 12.066406 -22.46875 15.328125 -23.25 C 18.585938 -24.03125 21.484375 -24.632812 24.015625 -25.0625 C 26.554688 -25.5 28.710938 -25.796875 30.484375 -25.953125 L 30.578125 -28.140625 C 30.628906 -30.734375 29.253906 -32.132812 26.453125 -32.34375 C 23.859375 -32.507812 18.410156 -31.351562 10.109375 -28.875 L 10.03125 -28.875 L 9.953125 -28.796875 L 9.78125 -28.796875 L 9.703125 -28.703125 L 9.546875 -28.703125 L 9.46875 -28.625 L 9.296875 -28.625 L 9.21875 -28.546875 L 8.984375 -28.546875 L 8.890625 -28.46875 L 8.734375 -28.46875 L 8.65625 -28.390625 Z M 12.609375 -8.09375 C 13.097656 -7.332031 14.015625 -6.84375 15.359375 -6.625 C 16.710938 -6.414062 18.75 -6.78125 21.46875 -7.71875 C 24.195312 -8.664062 27.148438 -10.328125 30.328125 -12.703125 L 30.40625 -19.8125 C 16.175781 -15.664062 10.242188 -11.757812 12.609375 -8.09375 Z M 12.609375 -8.09375 "/></g></g></g><g fill="#afc1d0" fill-opacity="1"><g transform="translate(160.148915, 222.726657)"><g><path d="M 83.265625 -23.875 L 83.265625 -29.421875 C 81.035156 -30.835938 78.703125 -31.570312 76.265625 -31.625 C 73.828125 -31.6875 71.664062 -31.289062 69.78125 -30.4375 C 67.90625 -29.59375 66.203125 -28.4375 64.671875 -26.96875 L 64.671875 -26.875 L 64.578125 -26.875 C 62.941406 -25.226562 61.84375 -23.550781 61.28125 -21.84375 C 60.71875 -20.144531 60.910156 -18.765625 61.859375 -17.703125 C 62.503906 -16.941406 63.5 -16.328125 64.84375 -15.859375 C 66.195312 -15.390625 67.84375 -15.140625 69.78125 -15.109375 C 71.71875 -15.078125 73.90625 -15.796875 76.34375 -17.265625 C 78.78125 -18.734375 81.085938 -20.9375 83.265625 -23.875 Z M 100.890625 -54.546875 L 100.890625 -46.078125 L 94.28125 -46.078125 L 94.28125 4.84375 L 83.265625 -0.09375 L 83.265625 -12.421875 C 79.742188 -8.304688 76.160156 -6.25 72.515625 -6.25 C 65.523438 -6.25 59.125 -11.890625 53.3125 -23.171875 C 52.71875 -24.285156 52.597656 -25.519531 52.953125 -26.875 L 40.796875 -26.875 C 42.378906 -25.46875 43.769531 -24.015625 44.96875 -22.515625 C 46.175781 -21.015625 46.929688 -19.851562 47.234375 -19.03125 C 47.929688 -16.851562 47.382812 -14.648438 45.59375 -12.421875 C 43.800781 -10.191406 41.453125 -8.441406 38.546875 -7.171875 C 35.640625 -5.910156 32.613281 -5.0625 29.46875 -4.625 C 26.332031 -4.1875 23.789062 -4.671875 21.84375 -6.078125 C 18.09375 -8.660156 11.3125 -17.207031 1.5 -31.71875 L 3.78125 -33.125 C 8.3125 -27.664062 11.457031 -24.054688 13.21875 -22.296875 C 19.625 -16.066406 25.234375 -13.65625 30.046875 -15.0625 C 30.804688 -15.300781 31.582031 -15.609375 32.375 -15.984375 C 33.164062 -16.367188 33.957031 -16.910156 34.75 -17.609375 C 35.550781 -18.316406 36.15625 -19.097656 36.5625 -19.953125 C 36.976562 -20.804688 37.109375 -21.832031 36.953125 -23.03125 C 36.804688 -24.238281 36.296875 -25.519531 35.421875 -26.875 L 29.078125 -26.875 L 19.46875 -35.328125 L 59.296875 -35.328125 C 61.941406 -37.566406 64.703125 -39.210938 67.578125 -40.265625 C 70.453125 -41.328125 72.535156 -41.414062 73.828125 -40.53125 C 76.765625 -38.351562 79.910156 -36.207031 83.265625 -34.09375 L 83.265625 -46.078125 L -2.109375 -46.078125 L -2.109375 -54.546875 Z M 100.890625 -54.546875 "/></g></g></g><g fill="#afc1d0" fill-opacity="1"><g transform="translate(260.4989, 222.726657)"><g><path d="M 46.34375 -0.09375 L 46.34375 -27.21875 C 43.757812 -25.632812 41.039062 -23.359375 38.1875 -20.390625 C 35.34375 -17.429688 33.097656 -14.507812 31.453125 -11.625 L 24.140625 -17.625 C 24.378906 -19.144531 25.582031 -21.203125 27.75 -23.796875 C 21.757812 -27.785156 17.179688 -28.222656 14.015625 -25.109375 C 11.546875 -22.410156 11.53125 -18.210938 13.96875 -12.515625 C 16.40625 -6.816406 20.117188 -1.96875 25.109375 2.03125 L 22.734375 5.015625 C 18.035156 0.910156 13.394531 -4.003906 8.8125 -9.734375 C 4.226562 -15.460938 1.757812 -19.648438 1.40625 -22.296875 C 1.175781 -24.109375 2.144531 -26.265625 4.3125 -28.765625 C 6.488281 -31.265625 8.984375 -33.304688 11.796875 -34.890625 C 14.617188 -36.472656 16.828125 -37.003906 18.421875 -36.484375 C 21.117188 -35.535156 25.140625 -32.242188 30.484375 -26.609375 C 32.890625 -28.898438 35.53125 -30.894531 38.40625 -32.59375 C 41.289062 -34.300781 43.9375 -35.332031 46.34375 -35.6875 L 46.34375 -46.078125 L -0.796875 -46.078125 L -0.796875 -54.546875 L 64.140625 -54.546875 L 64.140625 -46.078125 L 57.265625 -46.078125 L 57.265625 4.84375 Z M 46.34375 -0.09375 "/></g></g></g><g clip-path="url(#8cf3e7dfe8)"><path fill="#f3f6fa" d="M 74.007812 179.242188 C 73.988281 187.238281 73.960938 195.328125 73.925781 203.515625 C 73.921875 204.824219 73.425781 206.535156 72.050781 206.945312 C 71.269531 207.175781 70.539062 206.960938 69.863281 206.300781 C 65.109375 201.648438 60.46875 197.082031 55.949219 192.59375 C 55.203125 191.855469 54.828125 190.960938 54.820312 189.910156 C 54.765625 181.828125 54.742188 173.011719 54.75 163.453125 C 54.75 161.527344 55.359375 160.089844 56.574219 159.144531 C 56.921875 158.871094 57.328125 158.734375 57.789062 158.730469 C 70.433594 158.660156 83.4375 158.664062 96.800781 158.742188 C 100.296875 158.761719 102.609375 158.652344 103.734375 158.417969 C 106.105469 157.921875 108.207031 156.730469 110.039062 154.847656 C 113.328125 151.46875 113.382812 145.492188 110.65625 141.769531 C 108.179688 138.390625 104.808594 136.710938 100.542969 136.726562 C 91.265625 136.761719 82.007812 136.757812 72.765625 136.714844 C 71.589844 136.710938 70.636719 136.425781 69.75 135.574219 C 65.289062 131.304688 61.105469 126.964844 57.039062 123.039062 C 56.054688 122.097656 55.449219 121.3125 55.210938 120.6875 C 54.636719 119.171875 56.03125 116.375 58.019531 116.375 C 71.265625 116.367188 84.132812 116.347656 96.625 116.316406 C 100.113281 116.308594 102.742188 116.421875 104.515625 116.664062 C 110.601562 117.492188 115.96875 119.984375 120.613281 124.132812 C 129.621094 132.1875 133.609375 143.535156 130.808594 155.351562 C 129.800781 159.582031 127.988281 163.363281 125.371094 166.695312 C 120.144531 173.339844 113.382812 177.363281 105.089844 178.765625 C 103.753906 178.992188 102.433594 179.109375 101.125 179.117188 C 92.316406 179.164062 83.328125 179.15625 74.15625 179.097656 C 74.0625 179.097656 74.011719 179.148438 74.007812 179.242188 Z M 74.007812 179.242188 " fill-opacity="1" fill-rule="nonzero"/></g><g clip-path="url(#3d24cbeacd)"><path fill="#f3f6fa" d="M 89.082031 174.160156 L 99.128906 174.160156 L 99.128906 193.859375 L 89.082031 193.859375 Z M 89.082031 174.160156 " fill-opacity="1" fill-rule="nonzero"/></g><g clip-path="url(#f1e2c5624c)"><path fill="#f3f6fa" d="M 146.136719 175.484375 L 156.183594 175.484375 L 156.183594 195.179688 L 146.136719 195.179688 Z M 146.136719 175.484375 " fill-opacity="1" fill-rule="nonzero"/></g><g clip-path="url(#1a272bb5e8)"><path fill="#f3f6fa" d="M 60.269531 167.90625 L 326.167969 167.90625 L 326.167969 178.675781 L 60.269531 178.675781 Z M 60.269531 167.90625 " fill-opacity="1" fill-rule="nonzero"/></g><g clip-path="url(#099e728367)"><path fill="#f3f6fa" d="M 55.011719 120.597656 L 112.972656 120.597656 L 112.972656 160.59375 L 55.011719 160.59375 Z M 55.011719 120.597656 " fill-opacity="1" fill-rule="nonzero"/></g><g clip-path="url(#e9e0feda66)"><path fill="#f3f6fa" d="M 54.582031 116.316406 L 74.363281 116.316406 L 74.363281 229.902344 L 54.582031 229.902344 Z M 54.582031 116.316406 " fill-opacity="1" fill-rule="nonzero"/></g><g clip-path="url(#7061eedd90)"><path fill="#1c3f60" d="M 78.28125 138.464844 C 79.691406 141.367188 79.707031 143.917969 79.023438 146.070312 C 77.234375 151.722656 70.824219 154.460938 65.453125 151.945312 C 62.128906 150.386719 58.742188 147.8125 58.65625 143.769531 C 58.65625 143.769531 57.121094 149.578125 66.082031 154.992188 C 68.34375 156.355469 69.972656 158.566406 70.585938 161.132812 C 71.523438 165.082031 71.789062 170.851562 67.484375 175.472656 C 67.484375 175.472656 75.679688 171.457031 76.242188 158.273438 C 76.308594 156.710938 76.742188 155.183594 77.519531 153.828125 C 79.488281 150.398438 82.628906 143.273438 78.28125 138.464844 " fill-opacity="1" fill-rule="nonzero"/></g><path fill="#1c3f60" d="M 70.566406 151.8125 C 72.28125 152.175781 73.96875 151.082031 74.332031 149.367188 C 74.695312 147.648438 73.601562 145.964844 71.886719 145.601562 C 70.171875 145.234375 68.484375 146.332031 68.121094 148.046875 C 67.753906 149.761719 68.851562 151.449219 70.566406 151.8125 " fill-opacity="1" fill-rule="nonzero"/><g clip-path="url(#adba2be2ea)"><path fill="#1c3f60" d="M 91.863281 138.464844 C 90.449219 141.367188 90.4375 143.917969 91.117188 146.070312 C 92.90625 151.722656 99.316406 154.460938 104.6875 151.945312 C 108.015625 150.386719 111.398438 147.8125 111.484375 143.769531 C 111.484375 143.769531 113.023438 149.578125 104.058594 154.992188 C 101.796875 156.355469 100.167969 158.566406 99.558594 161.132812 C 98.621094 165.082031 98.351562 170.851562 102.65625 175.472656 C 102.65625 175.472656 94.460938 171.457031 93.898438 158.273438 C 93.832031 156.710938 93.398438 155.183594 92.621094 153.828125 C 90.65625 150.398438 87.511719 143.273438 91.863281 138.464844 " fill-opacity="1" fill-rule="nonzero"/></g><path fill="#1c3f60" d="M 99.574219 151.8125 C 97.859375 152.175781 96.175781 151.082031 95.808594 149.367188 C 95.445312 147.648438 96.542969 145.964844 98.257812 145.601562 C 99.972656 145.234375 101.65625 146.332031 102.023438 148.046875 C 102.386719 149.761719 101.292969 151.449219 99.574219 151.8125 " fill-opacity="1" fill-rule="nonzero"/><g clip-path="url(#705496df2e)"><path fill="#ebda82" d="M 87.105469 117.980469 C 80.4375 121.90625 87.660156 125.582031 84.242188 129.894531 C 91.546875 126.335938 82.367188 122.757812 87.105469 117.980469 " fill-opacity="1" fill-rule="nonzero"/></g><path fill="#d3bd6a" d="M 87.914062 119.945312 C 83.769531 123.5 90.597656 124.832031 86.457031 128.96875 C 92.605469 125.171875 85.03125 123.554688 87.914062 119.945312 " fill-opacity="1" fill-rule="nonzero"/><path fill="#c0a658" d="M 84.335938 119.476562 C 79.078125 123.753906 85.8125 125.988281 83.421875 130.171875 C 86.929688 126.109375 80.859375 124.238281 84.335938 119.476562 " fill-opacity="1" fill-rule="nonzero"/><path fill="#1c3f60" d="M 87.027344 136.664062 L 83.128906 136.664062 C 82.917969 136.664062 82.730469 136.824219 82.71875 137.035156 C 82.703125 137.265625 82.886719 137.460938 83.117188 137.460938 L 83.546875 137.460938 L 84.414062 146.933594 C 84.445312 147.273438 84.730469 147.535156 85.070312 147.535156 C 85.414062 147.535156 85.695312 147.273438 85.726562 146.933594 L 86.59375 137.460938 L 87.011719 137.460938 C 87.226562 137.460938 87.410156 137.300781 87.421875 137.085938 C 87.4375 136.855469 87.253906 136.664062 87.027344 136.664062 " fill-opacity="1" fill-rule="nonzero"/><path fill="#1c3f60" d="M 88.730469 131.921875 L 81.410156 131.921875 C 81.171875 131.921875 80.980469 132.113281 80.980469 132.351562 C 80.980469 132.585938 81.171875 132.78125 81.410156 132.78125 L 88.730469 132.78125 C 88.96875 132.78125 89.160156 132.585938 89.160156 132.351562 C 89.160156 132.113281 88.96875 131.921875 88.730469 131.921875 " fill-opacity="1" fill-rule="nonzero"/><path fill="#1c3f60" d="M 87.945312 130.652344 L 82.199219 130.652344 C 81.960938 130.652344 81.769531 130.84375 81.769531 131.082031 C 81.769531 131.320312 81.960938 131.511719 82.199219 131.511719 L 87.945312 131.511719 C 88.179688 131.511719 88.375 131.320312 88.375 131.082031 C 88.375 130.84375 88.179688 130.652344 87.945312 130.652344 " fill-opacity="1" fill-rule="nonzero"/><path fill="#1c3f60" d="M 81.769531 132.351562 L 83.269531 136.15625 L 86.875 136.15625 L 88.375 132.351562 L 81.769531 132.351562 " fill-opacity="1" fill-rule="nonzero"/><g clip-path="url(#b1e9bd9d84)"><g clip-path="url(#b91eee7f22)"><path fill="#1c3f60" d="M 52.355469 222.75 L 84.847656 230.636719 L 81.328125 245.128906 L 48.835938 237.242188 Z M 52.355469 222.75 " fill-opacity="1" fill-rule="nonzero"/></g></g><g clip-path="url(#63f1230b8b)"><path fill="#afc1d0" d="M 168.714844 167.90625 L 326.175781 167.90625 L 326.175781 178.675781 L 168.714844 178.675781 Z M 168.714844 167.90625 " fill-opacity="1" fill-rule="nonzero"/></g><g clip-path="url(#3ae967d560)"><path fill="#f3f6fa" d="M 155.183594 178.21875 L 178.257812 178.21875 L 169.214844 168.007812 L 146.136719 168.007812 Z M 155.183594 178.21875 " fill-opacity="1" fill-rule="nonzero"/></g></svg>